<?xml version="1.0" encoding="iso-8859-1"?>
<!-- Uploaded to: SVG Repo, www.svgrepo.com, Generator: SVG Repo Mixer Tools -->
<svg height="800px" width="800px" version="1.1" id="Layer_1" xmlns="http://www.w3.org/2000/svg" xmlns:xlink="http://www.w3.org/1999/xlink" 
	 viewBox="0 0 392.598 392.598" xml:space="preserve">
<polyline style="fill:#FFFFFF;" points="63.899,370.747 328.82,370.747 328.82,138.279 63.899,138.279 "/>
<path style="fill:#56ACE0;" d="M196.36,240.485c-25.341,0-46.028,20.622-46.028,46.028v84.299h92.057v-84.364
	C242.453,261.107,221.766,240.485,196.36,240.485z"/>
<g>
	<polygon style="fill:#FFC10D;" points="196.36,23.855 48.966,116.428 343.883,116.428 	"/>
	<polygon style="fill:#FFC10D;" points="117.491,47.644 117.491,21.851 82.259,21.851 82.259,69.754 82.259,69.754 	"/>
</g>
<g>
	<path style="fill:#194F82;" d="M387.455,118.109L202.113,1.745c-3.556-2.263-8.016-2.263-11.572,0l-51.329,32.194V10.925
		C139.212,4.913,134.364,0,128.287,0H71.269c-6.012,0-10.925,4.848-10.925,10.925v72.533L5.2,118.109
		c-9.438,6.271-4.978,19.911,5.818,20.17h31.095v243.394c0,6.012,4.848,10.925,10.925,10.925H339.81
		c6.012,0,10.925-4.848,10.925-10.925V138.279h31.095C394.437,137.826,395.406,122.376,387.455,118.109z M82.194,21.851h35.232
		V47.58L82.194,69.754V21.851z M242.324,370.812h-91.992v-84.364c0-25.341,20.622-46.028,46.028-46.028
		c25.341,0,46.028,20.622,46.028,46.028v84.364H242.324z M328.82,370.812h-64.582v-84.364c0-37.43-30.448-67.814-67.814-67.814
		s-67.814,30.449-67.814,67.814v84.299H63.964V232.339h20.299c6.012,0,10.925-4.848,10.925-10.925s-4.848-10.925-10.925-10.925
		H63.964v-26.182h53.01c6.012,0,10.925-4.848,10.925-10.925c0-6.012-4.848-10.925-10.925-10.925h-53.01v-24.242h264.921v232.533
		h-0.065V370.812z M48.837,116.428l147.459-92.574l147.523,92.574H48.837z"/>
	<path style="fill:#194F82;" d="M211.293,294.723c-6.012,0-10.925,4.848-10.925,10.925v19.459c0,6.012,4.848,10.925,10.925,10.925
		c6.077,0,10.925-4.848,10.925-10.925v-19.523C222.283,299.572,217.305,294.723,211.293,294.723z"/>
</g>
</svg>